<mxfile host="65bd71144e">
    <diagram name="Page-1" id="C7_CmW_7S5n_Y9hT2Itj">
        <mxGraphModel dx="1320" dy="1388" grid="1" gridSize="10" guides="1" tooltips="1" connect="1" arrows="1" fold="1" page="1" pageScale="1" pageWidth="850" pageHeight="1100" math="0" shadow="0">
            <root>
                <mxCell id="0"/>
                <mxCell id="1" parent="0"/>
                <mxCell id="hpz6M3_p9SZVhZBs3GKl-1" value="LOGO" style="rounded=1;whiteSpace=wrap;html=1;labelBackgroundColor=none;" parent="1" vertex="1">
                    <mxGeometry x="335" y="80" width="180" height="170" as="geometry"/>
                </mxCell>
                <mxCell id="hpz6M3_p9SZVhZBs3GKl-4" value="WHAT WE DO!" style="html=1;whiteSpace=wrap;labelBackgroundColor=none;" parent="1" vertex="1">
                    <mxGeometry x="65" y="310" width="270" height="270" as="geometry"/>
                </mxCell>
                <object label="SUBSCRIPTION Data" id="hpz6M3_p9SZVhZBs3GKl-5">
                    <mxCell style="shape=table;startSize=30;container=1;collapsible=1;childLayout=tableLayout;fixedRows=1;rowLines=0;fontStyle=1;align=center;resizeLast=1;html=1;labelBackgroundColor=none;" parent="1" vertex="1">
                        <mxGeometry x="30" y="630" width="380" height="400" as="geometry"/>
                    </mxCell>
                </object>
                <mxCell id="hpz6M3_p9SZVhZBs3GKl-6" value="" style="shape=tableRow;horizontal=0;startSize=0;swimlaneHead=0;swimlaneBody=0;fillColor=none;collapsible=0;dropTarget=0;points=[[0,0.5],[1,0.5]];portConstraint=eastwest;top=0;left=0;right=0;bottom=1;labelBackgroundColor=none;" parent="hpz6M3_p9SZVhZBs3GKl-5" vertex="1">
                    <mxGeometry y="30" width="380" height="40" as="geometry"/>
                </mxCell>
                <mxCell id="hpz6M3_p9SZVhZBs3GKl-7" value="PK" style="shape=partialRectangle;connectable=0;fillColor=none;top=0;left=0;bottom=0;right=0;fontStyle=1;overflow=hidden;whiteSpace=wrap;html=1;labelBackgroundColor=none;" parent="hpz6M3_p9SZVhZBs3GKl-6" vertex="1">
                    <mxGeometry width="30" height="40" as="geometry">
                        <mxRectangle width="30" height="40" as="alternateBounds"/>
                    </mxGeometry>
                </mxCell>
                <mxCell id="hpz6M3_p9SZVhZBs3GKl-8" value="UniqueID" style="shape=partialRectangle;connectable=0;fillColor=none;top=0;left=0;bottom=0;right=0;align=left;spacingLeft=6;fontStyle=5;overflow=hidden;whiteSpace=wrap;html=1;labelBackgroundColor=none;" parent="hpz6M3_p9SZVhZBs3GKl-6" vertex="1">
                    <mxGeometry x="30" width="350" height="40" as="geometry">
                        <mxRectangle width="350" height="40" as="alternateBounds"/>
                    </mxGeometry>
                </mxCell>
                <mxCell id="hpz6M3_p9SZVhZBs3GKl-9" value="" style="shape=tableRow;horizontal=0;startSize=0;swimlaneHead=0;swimlaneBody=0;fillColor=none;collapsible=0;dropTarget=0;points=[[0,0.5],[1,0.5]];portConstraint=eastwest;top=0;left=0;right=0;bottom=0;labelBackgroundColor=none;" parent="hpz6M3_p9SZVhZBs3GKl-5" vertex="1">
                    <mxGeometry y="70" width="380" height="30" as="geometry"/>
                </mxCell>
                <mxCell id="hpz6M3_p9SZVhZBs3GKl-10" value="" style="shape=partialRectangle;connectable=0;fillColor=none;top=0;left=0;bottom=0;right=0;editable=1;overflow=hidden;whiteSpace=wrap;html=1;labelBackgroundColor=none;" parent="hpz6M3_p9SZVhZBs3GKl-9" vertex="1">
                    <mxGeometry width="30" height="30" as="geometry">
                        <mxRectangle width="30" height="30" as="alternateBounds"/>
                    </mxGeometry>
                </mxCell>
                <mxCell id="hpz6M3_p9SZVhZBs3GKl-11" value="Row 1" style="shape=partialRectangle;connectable=0;fillColor=none;top=0;left=0;bottom=0;right=0;align=left;spacingLeft=6;overflow=hidden;whiteSpace=wrap;html=1;labelBackgroundColor=none;" parent="hpz6M3_p9SZVhZBs3GKl-9" vertex="1">
                    <mxGeometry x="30" width="350" height="30" as="geometry">
                        <mxRectangle width="350" height="30" as="alternateBounds"/>
                    </mxGeometry>
                </mxCell>
                <mxCell id="hpz6M3_p9SZVhZBs3GKl-12" value="" style="shape=tableRow;horizontal=0;startSize=0;swimlaneHead=0;swimlaneBody=0;fillColor=none;collapsible=0;dropTarget=0;points=[[0,0.5],[1,0.5]];portConstraint=eastwest;top=0;left=0;right=0;bottom=0;labelBackgroundColor=none;" parent="hpz6M3_p9SZVhZBs3GKl-5" vertex="1">
                    <mxGeometry y="100" width="380" height="160" as="geometry"/>
                </mxCell>
                <mxCell id="hpz6M3_p9SZVhZBs3GKl-13" value="" style="shape=partialRectangle;connectable=0;fillColor=none;top=0;left=0;bottom=0;right=0;editable=1;overflow=hidden;whiteSpace=wrap;html=1;labelBackgroundColor=none;" parent="hpz6M3_p9SZVhZBs3GKl-12" vertex="1">
                    <mxGeometry width="30" height="160" as="geometry">
                        <mxRectangle width="30" height="160" as="alternateBounds"/>
                    </mxGeometry>
                </mxCell>
                <mxCell id="hpz6M3_p9SZVhZBs3GKl-14" value="Row 2" style="shape=partialRectangle;connectable=0;fillColor=none;top=0;left=0;bottom=0;right=0;align=left;spacingLeft=6;overflow=hidden;whiteSpace=wrap;html=1;labelBackgroundColor=none;" parent="hpz6M3_p9SZVhZBs3GKl-12" vertex="1">
                    <mxGeometry x="30" width="350" height="160" as="geometry">
                        <mxRectangle width="350" height="160" as="alternateBounds"/>
                    </mxGeometry>
                </mxCell>
                <mxCell id="hpz6M3_p9SZVhZBs3GKl-15" value="" style="shape=tableRow;horizontal=0;startSize=0;swimlaneHead=0;swimlaneBody=0;fillColor=none;collapsible=0;dropTarget=0;points=[[0,0.5],[1,0.5]];portConstraint=eastwest;top=0;left=0;right=0;bottom=0;labelBackgroundColor=none;" parent="hpz6M3_p9SZVhZBs3GKl-5" vertex="1">
                    <mxGeometry y="260" width="380" height="140" as="geometry"/>
                </mxCell>
                <mxCell id="hpz6M3_p9SZVhZBs3GKl-16" value="" style="shape=partialRectangle;connectable=0;fillColor=none;top=0;left=0;bottom=0;right=0;editable=1;overflow=hidden;whiteSpace=wrap;html=1;labelBackgroundColor=none;" parent="hpz6M3_p9SZVhZBs3GKl-15" vertex="1">
                    <mxGeometry width="30" height="140" as="geometry">
                        <mxRectangle width="30" height="140" as="alternateBounds"/>
                    </mxGeometry>
                </mxCell>
                <mxCell id="hpz6M3_p9SZVhZBs3GKl-17" value="Row 3" style="shape=partialRectangle;connectable=0;fillColor=none;top=0;left=0;bottom=0;right=0;align=left;spacingLeft=6;overflow=hidden;whiteSpace=wrap;html=1;labelBackgroundColor=none;" parent="hpz6M3_p9SZVhZBs3GKl-15" vertex="1">
                    <mxGeometry x="30" width="350" height="140" as="geometry">
                        <mxRectangle width="350" height="140" as="alternateBounds"/>
                    </mxGeometry>
                </mxCell>
                <mxCell id="hpz6M3_p9SZVhZBs3GKl-20" value="" style="verticalLabelPosition=bottom;verticalAlign=top;html=1;shape=mxgraph.basic.patternFillRect;fillStyle=diag;step=5;fillStrokeWidth=0.2;fillStrokeColor=#dddddd;labelBackgroundColor=none;" parent="1" vertex="1">
                    <mxGeometry x="10" y="1040" width="830" height="60" as="geometry"/>
                </mxCell>
                <mxCell id="hpz6M3_p9SZVhZBs3GKl-21" value="MEMBERSHIP SIGN UP" style="swimlane;fontStyle=1;align=center;verticalAlign=top;childLayout=stackLayout;horizontal=1;startSize=50;horizontalStack=0;resizeParent=1;resizeParentMax=0;resizeLast=0;collapsible=1;marginBottom=0;whiteSpace=wrap;html=1;" parent="1" vertex="1">
                    <mxGeometry x="440" y="640" width="370" height="370" as="geometry"/>
                </mxCell>
                <mxCell id="hpz6M3_p9SZVhZBs3GKl-22" value="+ field: type" style="text;strokeColor=none;fillColor=none;align=left;verticalAlign=top;spacingLeft=4;spacingRight=4;overflow=hidden;rotatable=0;points=[[0,0.5],[1,0.5]];portConstraint=eastwest;whiteSpace=wrap;html=1;" parent="hpz6M3_p9SZVhZBs3GKl-21" vertex="1">
                    <mxGeometry y="50" width="370" height="26" as="geometry"/>
                </mxCell>
                <mxCell id="hpz6M3_p9SZVhZBs3GKl-23" value="" style="line;strokeWidth=1;fillColor=none;align=left;verticalAlign=middle;spacingTop=-1;spacingLeft=3;spacingRight=3;rotatable=0;labelPosition=right;points=[];portConstraint=eastwest;strokeColor=inherit;" parent="hpz6M3_p9SZVhZBs3GKl-21" vertex="1">
                    <mxGeometry y="76" width="370" height="8" as="geometry"/>
                </mxCell>
                <mxCell id="hpz6M3_p9SZVhZBs3GKl-24" value="+ method(type): type" style="text;strokeColor=none;fillColor=none;align=left;verticalAlign=top;spacingLeft=4;spacingRight=4;overflow=hidden;rotatable=0;points=[[0,0.5],[1,0.5]];portConstraint=eastwest;whiteSpace=wrap;html=1;" parent="hpz6M3_p9SZVhZBs3GKl-21" vertex="1">
                    <mxGeometry y="84" width="370" height="276" as="geometry"/>
                </mxCell>
                <mxCell id="hpz6M3_p9SZVhZBs3GKl-27" value="" style="line;strokeWidth=1;rotatable=0;dashed=0;labelPosition=right;align=left;verticalAlign=middle;spacingTop=0;spacingLeft=6;points=[];portConstraint=eastwest;" parent="hpz6M3_p9SZVhZBs3GKl-21" vertex="1">
                    <mxGeometry y="360" width="370" height="10" as="geometry"/>
                </mxCell>
                <mxCell id="hpz6M3_p9SZVhZBs3GKl-28" value="GET SNACK IDEAS HERE" style="strokeWidth=2;html=1;shape=mxgraph.flowchart.start_2;whiteSpace=wrap;" parent="1" vertex="1">
                    <mxGeometry x="480" y="300" width="340" height="290" as="geometry"/>
                </mxCell>
                <mxCell id="hpz6M3_p9SZVhZBs3GKl-29" value="" style="verticalLabelPosition=bottom;verticalAlign=top;html=1;shape=mxgraph.basic.patternFillRect;fillStyle=diag;step=5;fillStrokeWidth=0.2;fillStrokeColor=#dddddd;labelBackgroundColor=none;" parent="1" vertex="1">
                    <mxGeometry x="10" y="10" width="830" height="60" as="geometry"/>
                </mxCell>
                <mxCell id="2" value="SNACK PICS" style="strokeWidth=2;html=1;shape=mxgraph.flowchart.start_2;whiteSpace=wrap;" vertex="1" parent="1">
                    <mxGeometry x="100" y="130" width="130" height="110" as="geometry"/>
                </mxCell>
                <mxCell id="3" value="SNACKSOICS" style="strokeWidth=2;html=1;shape=mxgraph.flowchart.start_2;whiteSpace=wrap;" vertex="1" parent="1">
                    <mxGeometry x="620" y="110" width="135" height="110" as="geometry"/>
                </mxCell>
            </root>
        </mxGraphModel>
    </diagram>
</mxfile>